HIERARCHY
ROOT Hips
{
	OFFSET -0.001795 -0.223333 0.028219
	CHANNELS 6 Xposition Yposition Zposition Zrotation Yrotation Xrotation 
	JOINT LeftUpLeg
	{
		OFFSET 0.069520 -0.091406 -0.006815
		CHANNELS 3 Zrotation Yrotation Xrotation
		JOINT LeftLeg
		{
			OFFSET 0.034277 -0.375199 -0.004496
			CHANNELS 3 Zrotation Yrotation Xrotation
			JOINT LeftFoot
			{
				OFFSET -0.013596 -0.397961 -0.043693
				CHANNELS 3 Zrotation Yrotation Xrotation
				JOINT LeftToe
				{
					OFFSET 0.026358 -0.055791 0.119288
					CHANNELS 3 Zrotation Yrotation Xrotation
					End Site
					{
						OFFSET 0.000000 0.000000 0.000000
					}
				}
			}
		}
	}
	JOINT RightUpLeg
	{
		OFFSET -0.067670 -0.090522 -0.004320
		CHANNELS 3 Zrotation Yrotation Xrotation
		JOINT RightLeg
		{
			OFFSET -0.038290 -0.382569 -0.008850
			CHANNELS 3 Zrotation Yrotation Xrotation
			JOINT RightFoot
			{
				OFFSET 0.015774 -0.398415 -0.042312
				CHANNELS 3 Zrotation Yrotation Xrotation
				JOINT RightToe
				{
					OFFSET -0.025372 -0.048144 0.123348
					CHANNELS 3 Zrotation Yrotation Xrotation
					End Site
					{
						OFFSET 0.000000 0.000000 0.000000
					}
				}
			}
		}
	}
	JOINT Spine
	{
		OFFSET -0.002533 0.108963 -0.026696
		CHANNELS 3 Zrotation Yrotation Xrotation
		JOINT Spine1
		{
			OFFSET 0.005487 0.135180 0.001092
			CHANNELS 3 Zrotation Yrotation Xrotation
			JOINT Spine2
			{
				OFFSET 0.001457 0.052922 0.025425
				CHANNELS 3 Zrotation Yrotation Xrotation
				JOINT Neck
				{
					OFFSET -0.002778 0.213870 -0.042857
					CHANNELS 3 Zrotation Yrotation Xrotation
					JOINT Head
					{
						OFFSET 0.005152 0.064970 0.051349
						CHANNELS 3 Zrotation Yrotation Xrotation
						End Site
						{
							OFFSET 0.000000 0.000000 0.000000
						}
					}
				}
				JOINT LeftShoulder
				{
					OFFSET 0.078845 0.121749 -0.034090
					CHANNELS 3 Zrotation Yrotation Xrotation
					JOINT LeftArm
					{
						OFFSET 0.090977 0.030469 -0.008868
						CHANNELS 3 Zrotation Yrotation Xrotation
						JOINT LeftForeArm
						{
							OFFSET 0.259612 -0.012772 -0.027456
							CHANNELS 3 Zrotation Yrotation Xrotation
							JOINT LeftHand
							{
								OFFSET 0.249234 0.008986 -0.001171
								CHANNELS 3 Zrotation Yrotation Xrotation
								End Site
								{
									OFFSET 0.000000 0.000000 0.000000
								}
							}
						}
					}
				}
				JOINT RightShoulder
				{
					OFFSET -0.081759 0.118833 -0.038615
					CHANNELS 3 Zrotation Yrotation Xrotation
					JOINT RightArm
					{
						OFFSET -0.096012 0.032551 -0.009143
						CHANNELS 3 Zrotation Yrotation Xrotation
						JOINT RightForeArm
						{
							OFFSET -0.253742 -0.013329 -0.021401
							CHANNELS 3 Zrotation Yrotation Xrotation
							JOINT RightHand
							{
								OFFSET -0.255298 0.007772 -0.005559
								CHANNELS 3 Zrotation Yrotation Xrotation
								End Site
								{
									OFFSET 0.000000 0.000000 0.000000
								}
							}
						}
					}
				}
			}
		}
	}
}
MOTION
Frames: 6
Frame Time: 0.050000
0.000000 0.897083 0.000000 1.796050 8.124518 -2.383106 -3.681175 -1.612135 -12.854991 -2.448068 -0.845183 27.350928 5.476175 5.925948 -13.225587 0.000000 0.000000 0.000000 -2.494860 1.676695 -28.094552 -1.668211 1.172506 43.873829 -2.088736 -2.306631 -8.086272 0.000000 0.000000 0.000000 2.642338 -1.363252 17.774862 3.858980 -1.816788 -0.683646 -0.601284 -3.019630 6.949062 0.686405 -0.164254 -4.598556 0.000000 0.000000 0.000000 -22.841873 -5.964350 0.998431 -55.016865 -3.433727 -5.287298 -8.917599 -37.154374 4.482279 0.000000 0.000000 0.000000 15.940441 7.201292 2.487581 56.582198 5.459525 -3.328735 -5.169528 34.917483 -0.123098 0.000000 0.000000 0.000000 
0.000526 0.894479 0.013236 1.694641 7.783678 -2.011921 -3.831479 -1.506840 -12.045818 -1.576210 -1.083541 26.824828 5.171744 4.246608 -14.721813 0.000000 0.000000 0.000000 -1.308616 2.045746 -29.059644 -3.615524 2.324987 45.409722 -1.722799 -1.763696 -6.702005 0.000000 0.000000 0.000000 2.839276 -1.388732 17.735651 3.326953 -1.417007 -2.292546 0.043875 -3.971014 9.053240 -0.218080 0.382944 -3.487879 0.000000 0.000000 0.000000 -20.476218 -4.852816 0.913308 -57.925321 -3.740763 -5.732683 -9.635077 -38.749315 5.182015 0.000000 0.000000 0.000000 13.128690 6.508537 2.020239 58.302005 6.104984 -3.316471 -3.235206 36.128523 0.430947 0.000000 0.000000 0.000000 
0.000549 0.891402 0.026108 1.641479 6.267083 -0.833132 -3.064307 -1.488708 -12.558810 -2.481005 -0.679704 27.618560 5.293202 4.016428 -16.523326 0.000000 0.000000 0.000000 -1.555260 2.226032 -31.209877 -3.047746 2.449021 48.179325 -1.787258 -1.735332 -6.827181 0.000000 0.000000 0.000000 2.896181 -1.267182 16.602109 2.761214 -1.067722 -3.559713 -0.320989 -3.257433 10.428826 0.493141 -0.058996 -5.027767 0.000000 0.000000 0.000000 -18.229384 -3.522655 0.344245 -58.897206 -4.364826 -5.635161 -12.121671 -38.337070 6.048202 0.000000 0.000000 0.000000 13.094918 4.703306 1.214282 58.892752 6.283025 -3.382713 -0.082425 36.532926 1.477008 0.000000 0.000000 0.000000 
-0.000165 0.889633 0.037543 2.155237 7.454531 0.223807 -3.519299 -1.616243 -13.207256 -2.030950 -0.942066 27.563999 5.456926 4.508478 -15.981104 0.000000 0.000000 0.000000 -2.562433 1.934452 -33.734463 -3.813794 2.707227 50.212391 -1.048789 0.255282 -6.491713 0.000000 0.000000 0.000000 2.929351 -1.319908 16.686248 2.890139 -1.185875 -2.590882 -0.032312 -4.706626 9.047058 -0.326266 0.496033 -4.522403 0.000000 0.000000 0.000000 -16.795713 -2.977995 0.313283 -60.462074 -4.902714 -5.331830 -12.657568 -39.672009 6.565841 0.000000 0.000000 0.000000 11.185003 4.420356 0.973355 60.651266 6.514437 -3.200061 0.726322 38.076680 1.672427 0.000000 0.000000 0.000000 
-0.002987 0.890326 0.048242 2.198613 7.475919 1.072886 -2.687594 -1.519963 -13.147044 -1.668339 -1.057943 27.343541 5.760895 5.246765 -16.296392 0.000000 0.000000 0.000000 -3.947849 1.545462 -34.924315 -2.205883 1.720428 49.348931 -1.231323 -0.705662 -5.632288 0.000000 0.000000 0.000000 2.841685 -1.295251 16.453208 2.687061 -1.014800 -3.595113 -0.319153 -4.469931 10.196085 0.459296 0.058556 -6.688392 0.000000 0.000000 0.000000 -15.036808 -3.638224 0.684950 -61.052929 -5.621022 -5.083394 -13.538544 -39.679336 6.876223 0.000000 0.000000 0.000000 10.813535 4.569541 1.144176 61.409278 7.347855 -2.882546 -0.007243 38.290122 1.537244 0.000000 0.000000 0.000000 
-0.007958 0.890518 0.057983 1.917846 7.628909 1.985140 -1.630060 -1.499901 -13.834004 -0.960535 -1.292469 27.030522 5.287425 3.540927 -16.572734 0.000000 0.000000 0.000000 -4.276753 1.436678 -35.340104 -2.632151 1.845441 44.086121 -0.039472 2.796942 -5.793603 0.000000 0.000000 0.000000 2.089720 -1.177852 16.303849 3.241444 -1.183250 -4.538053 0.043516 -4.440373 10.904081 0.607405 0.089366 -8.580338 0.000000 0.000000 0.000000 -13.922720 -2.952466 0.399410 -62.809546 -5.458895 -5.344662 -15.005373 -40.567844 7.634138 0.000000 0.000000 0.000000 9.750092 4.878352 1.359271 63.106003 7.512703 -2.895726 -0.369836 39.981431 1.550772 0.000000 0.000000 0.000000 
